<mxfile host="65bd71144e">
    <diagram id="keDKuoT6OYvPQVhtaFQo" name="Page-1">
        <mxGraphModel dx="1507" dy="1076" grid="1" gridSize="10" guides="1" tooltips="1" connect="1" arrows="1" fold="1" page="1" pageScale="1" pageWidth="850" pageHeight="1100" math="0" shadow="0">
            <root>
                <mxCell id="0"/>
                <mxCell id="1" parent="0"/>
                <mxCell id="2" value="红包流程" style="swimlane;childLayout=stackLayout;resizeParent=1;resizeParentMax=0;startSize=20;" parent="1" vertex="1">
                    <mxGeometry x="50" y="80" width="1155" height="860" as="geometry"/>
                </mxCell>
                <mxCell id="3" value="发起端" style="swimlane;startSize=20;" parent="2" vertex="1">
                    <mxGeometry y="20" width="550" height="840" as="geometry"/>
                </mxCell>
                <mxCell id="11" value="" style="edgeStyle=none;html=1;" parent="3" edge="1">
                    <mxGeometry relative="1" as="geometry">
                        <mxPoint x="140" y="100" as="sourcePoint"/>
                        <mxPoint x="140" y="100" as="targetPoint"/>
                    </mxGeometry>
                </mxCell>
                <mxCell id="87" value="" style="edgeStyle=none;html=1;fontSize=12;" parent="3" source="13" target="86" edge="1">
                    <mxGeometry relative="1" as="geometry"/>
                </mxCell>
                <mxCell id="13" value="&lt;font style=&quot;font-size: 12px&quot;&gt;发起红包&lt;/font&gt;" style="rounded=1;whiteSpace=wrap;html=1;fontSize=10;" parent="3" vertex="1">
                    <mxGeometry x="165" y="40" width="120" height="60" as="geometry"/>
                </mxCell>
                <mxCell id="84" value="发起支付" style="edgeStyle=none;html=1;fontSize=12;" parent="3" source="19" target="83" edge="1">
                    <mxGeometry relative="1" as="geometry"/>
                </mxCell>
                <mxCell id="19" value="红包设置" style="whiteSpace=wrap;html=1;rounded=1;" parent="3" vertex="1">
                    <mxGeometry x="165" y="395" width="120" height="60" as="geometry"/>
                </mxCell>
                <mxCell id="95" value="" style="edgeStyle=none;html=1;" edge="1" parent="3" source="83" target="94">
                    <mxGeometry relative="1" as="geometry"/>
                </mxCell>
                <mxCell id="99" value="扫码支付" style="edgeLabel;html=1;align=center;verticalAlign=middle;resizable=0;points=[];" vertex="1" connectable="0" parent="95">
                    <mxGeometry x="0.1" relative="1" as="geometry">
                        <mxPoint as="offset"/>
                    </mxGeometry>
                </mxCell>
                <mxCell id="83" value="二维码" style="whiteSpace=wrap;html=1;" parent="3" vertex="1">
                    <mxGeometry x="165" y="570" width="120" height="60" as="geometry"/>
                </mxCell>
                <mxCell id="89" value="" style="edgeStyle=none;html=1;exitX=0.5;exitY=1;exitDx=0;exitDy=0;exitPerimeter=0;entryX=0.5;entryY=0;entryDx=0;entryDy=0;" edge="1" parent="3" source="86" target="19">
                    <mxGeometry relative="1" as="geometry">
                        <mxPoint x="347.1428571428571" y="310" as="targetPoint"/>
                    </mxGeometry>
                </mxCell>
                <mxCell id="90" value="否" style="edgeLabel;html=1;align=center;verticalAlign=middle;resizable=0;points=[];" vertex="1" connectable="0" parent="89">
                    <mxGeometry x="-0.2296" relative="1" as="geometry">
                        <mxPoint as="offset"/>
                    </mxGeometry>
                </mxCell>
                <mxCell id="92" value="" style="edgeStyle=none;html=1;exitX=-0.007;exitY=0.533;exitDx=0;exitDy=0;exitPerimeter=0;" edge="1" parent="3" source="86" target="91">
                    <mxGeometry relative="1" as="geometry">
                        <Array as="points">
                            <mxPoint x="80" y="218"/>
                        </Array>
                    </mxGeometry>
                </mxCell>
                <mxCell id="86" value="&lt;span&gt;上一轮红包是否有剩余&lt;/span&gt;" style="html=1;whiteSpace=wrap;aspect=fixed;shape=isoRectangle;fontSize=12;" parent="3" vertex="1">
                    <mxGeometry x="150" y="170" width="150" height="90" as="geometry"/>
                </mxCell>
                <mxCell id="93" style="edgeStyle=none;html=1;entryX=0;entryY=0.5;entryDx=0;entryDy=0;exitX=0.5;exitY=1;exitDx=0;exitDy=0;" edge="1" parent="3" source="91" target="19">
                    <mxGeometry relative="1" as="geometry">
                        <Array as="points">
                            <mxPoint x="80" y="425"/>
                        </Array>
                    </mxGeometry>
                </mxCell>
                <mxCell id="91" value="提示弹窗" style="whiteSpace=wrap;html=1;" vertex="1" parent="3">
                    <mxGeometry x="20" y="280" width="120" height="60" as="geometry"/>
                </mxCell>
                <mxCell id="94" value="支付完成" style="whiteSpace=wrap;html=1;" vertex="1" parent="3">
                    <mxGeometry x="165" y="710" width="120" height="60" as="geometry"/>
                </mxCell>
                <mxCell id="14" style="edgeStyle=none;html=1;exitX=0;exitY=0.5;exitDx=0;exitDy=0;entryX=1;entryY=0.5;entryDx=0;entryDy=0;fontSize=10;" parent="2" source="4" target="3" edge="1">
                    <mxGeometry relative="1" as="geometry"/>
                </mxCell>
                <mxCell id="4" value="观看端" style="swimlane;startSize=20;" parent="2" vertex="1">
                    <mxGeometry x="550" y="20" width="605" height="840" as="geometry"/>
                </mxCell>
                <mxCell id="101" value="" style="edgeStyle=none;html=1;" edge="1" parent="4" source="96" target="100">
                    <mxGeometry relative="1" as="geometry"/>
                </mxCell>
                <mxCell id="96" value="显示抢红包" style="whiteSpace=wrap;html=1;" vertex="1" parent="4">
                    <mxGeometry x="225" y="40" width="120" height="60" as="geometry"/>
                </mxCell>
                <mxCell id="100" value="&lt;span&gt;是否登录&lt;/span&gt;" style="html=1;whiteSpace=wrap;aspect=fixed;shape=isoRectangle;fontSize=12;" vertex="1" parent="4">
                    <mxGeometry x="210" y="160" width="150" height="90" as="geometry"/>
                </mxCell>
                <mxCell id="112" value="" style="edgeStyle=none;html=1;" edge="1" parent="4" source="108" target="111">
                    <mxGeometry relative="1" as="geometry"/>
                </mxCell>
                <mxCell id="108" value="抢到余额/未抢到" style="whiteSpace=wrap;html=1;" vertex="1" parent="4">
                    <mxGeometry x="225" y="485" width="120" height="60" as="geometry"/>
                </mxCell>
                <mxCell id="111" value="中奖名单" style="whiteSpace=wrap;html=1;" vertex="1" parent="4">
                    <mxGeometry x="225" y="625" width="120" height="60" as="geometry"/>
                </mxCell>
                <mxCell id="102" value="登录弹窗" style="whiteSpace=wrap;html=1;" vertex="1" parent="4">
                    <mxGeometry x="455" y="175" width="120" height="60" as="geometry"/>
                </mxCell>
                <mxCell id="103" value="" style="edgeStyle=none;html=1;" edge="1" parent="4" source="100" target="102">
                    <mxGeometry relative="1" as="geometry"/>
                </mxCell>
                <mxCell id="104" value="否" style="edgeLabel;html=1;align=center;verticalAlign=middle;resizable=0;points=[];" vertex="1" connectable="0" parent="103">
                    <mxGeometry x="-0.4421" y="-4" relative="1" as="geometry">
                        <mxPoint as="offset"/>
                    </mxGeometry>
                </mxCell>
                <mxCell id="109" value="" style="edgeStyle=none;html=1;" edge="1" parent="4" source="105" target="108">
                    <mxGeometry relative="1" as="geometry"/>
                </mxCell>
                <mxCell id="105" value="抢红包" style="whiteSpace=wrap;html=1;" vertex="1" parent="4">
                    <mxGeometry x="225" y="345" width="120" height="60" as="geometry"/>
                </mxCell>
                <mxCell id="106" value="" style="edgeStyle=none;html=1;" edge="1" parent="4" source="100" target="105">
                    <mxGeometry relative="1" as="geometry"/>
                </mxCell>
                <mxCell id="107" value="是" style="edgeLabel;html=1;align=center;verticalAlign=middle;resizable=0;points=[];" vertex="1" connectable="0" parent="106">
                    <mxGeometry x="-0.0737" y="3" relative="1" as="geometry">
                        <mxPoint as="offset"/>
                    </mxGeometry>
                </mxCell>
                <mxCell id="98" value="" style="edgeStyle=none;html=1;entryX=0;entryY=0.5;entryDx=0;entryDy=0;exitX=1;exitY=0.5;exitDx=0;exitDy=0;" edge="1" parent="2" source="94" target="96">
                    <mxGeometry relative="1" as="geometry">
                        <mxPoint x="375" y="760" as="targetPoint"/>
                        <Array as="points">
                            <mxPoint x="470" y="760"/>
                            <mxPoint x="470" y="90"/>
                        </Array>
                    </mxGeometry>
                </mxCell>
            </root>
        </mxGraphModel>
    </diagram>
</mxfile>